ffmpeg started on 2025-06-15 at 20:05:44
Report written to "D:\Convert\FFMetrics\reports\ssim_report-6.txt"
Log level: 32
Command line:
ffmpeg -hide_banner -nostdin -i "G:\\\xc0\xed\xe8\xec\xe5\\[\xd2\xee\xef]\\\xd1\xea\xe0\xe7\xe0\xed\xe8\xe5 \xee\xe1 \xee\xe1\xf0\xf3\xf7\xe0\xeb\xfc\xed\xfb\xf5 \xea\xee\xeb\xfc\xf6\xe0\xf5\\[DC] Kekkon Yubiwa Monogatari - 12_Telegram_HEVC.mkv" -i "G:\\\xc0\xed\xe8\xec\xe5\\[\xd2\xee\xef]\\\xd1\xea\xe0\xe7\xe0\xed\xe8\xe5 \xee\xe1 \xee\xe1\xf0\xf3\xf7\xe0\xeb\xfc\xed\xfb\xf5 \xea\xee\xeb\xfc\xf6\xe0\xf5\\[DC] Kekkon Yubiwa Monogatari - 12_Telegram.mp4" -lavfi "[0:v]settb=AVTB,setpts=PTS-STARTPTS,format=pix_fmts=yuv420p10,fps=24000/1001,scale=1920:1080:flags=bicubic[main];[1:v]settb=AVTB,setpts=PTS-STARTPTS,format=pix_fmts=yuv420p,fps=24000/1001,scale=1920:1080:flags=bicubic[ref];[main][ref]ssim=eof_action=endall:stats_file='D\\:/Convert/FFMetrics/logs/ssim_logfile-6.txt'" -f null -
Input #0, matroska,webm, from 'G:\Аниме\[Топ]\Сказание об обручальных кольцах\[DC] Kekkon Yubiwa Monogatari - 12_Telegram_HEVC.mkv':
  Metadata:
    COMPATIBLE_BRANDS: isomiso2avc1mp41
    MAJOR_BRAND     : isom
    MINOR_VERSION   : 512
    ENCODER         : Lavf61.7.100
  Duration: 00:23:50.66, start: -0.021000, bitrate: 1298 kb/s
  Stream #0:0: Video: hevc (Main 10), yuv420p10le(tv, bt709, progressive), 1920x1080 [SAR 1:1 DAR 16:9], 23.98 fps, 23.98 tbr, 1k tbn (default)
      Metadata:
        HANDLER_NAME    : VideoHandler
        VENDOR_ID       : [0][0][0][0]
        ENCODER         : Lavc61.19.100 libx265
        BPS             : 1102750
        DURATION        : 00:23:46.549708333
        NUMBER_OF_FRAMES: 34203
        NUMBER_OF_BYTES : 196640999
        _STATISTICS_WRITING_APP: mkvpropedit v66.0.0 ('Josie') 64-bit
        _STATISTICS_WRITING_DATE_UTC: 2025-06-15 16:19:12
        _STATISTICS_TAGS: BPS DURATION NUMBER_OF_FRAMES NUMBER_OF_BYTES
  Stream #0:1: Audio: aac (LC), 48000 Hz, stereo, fltp (default)
      Metadata:
        HANDLER_NAME    : SoundHandler
        VENDOR_ID       : [0][0][0][0]
        ENCODER         : Lavc61.19.100 aac
        BPS             : 194984
        DURATION        : 00:23:50.656000000
        NUMBER_OF_FRAMES: 67063
        NUMBER_OF_BYTES : 34869444
        _STATISTICS_WRITING_APP: mkvpropedit v66.0.0 ('Josie') 64-bit
        _STATISTICS_WRITING_DATE_UTC: 2025-06-15 16:19:12
        _STATISTICS_TAGS: BPS DURATION NUMBER_OF_FRAMES NUMBER_OF_BYTES
Input #1, mov,mp4,m4a,3gp,3g2,mj2, from 'G:\Аниме\[Топ]\Сказание об обручальных кольцах\[DC] Kekkon Yubiwa Monogatari - 12_Telegram.mp4':
  Metadata:
    major_brand     : isom
    minor_version   : 512
    compatible_brands: isomiso2avc1mp41
    encoder         : Lavf60.16.100
  Duration: 00:23:50.61, start: 0.000000, bitrate: 3870 kb/s
  Stream #1:0[0x1](und): Video: h264 (High) (avc1 / 0x31637661), yuv420p(tv, bt709, progressive), 1920x1080 [SAR 1:1 DAR 16:9], 3733 kb/s, 23.98 fps, 23.98 tbr, 24k tbn (default)
      Metadata:
        handler_name    : VideoHandler
        vendor_id       : [0][0][0][0]
        encoder         : Lavc60.31.102 h264_qsv
  Stream #1:1[0x2](und): Audio: aac (HE-AACv2) (mp4a / 0x6134706D), 48000 Hz, stereo, fltp, 144 kb/s (default)
      Metadata:
        handler_name    : SoundHandler
        vendor_id       : [0][0][0][0]
Stream mapping:
  Stream #0:0 (hevc) -> settb:default
  Stream #1:0 (h264) -> settb:default
  ssim:default -> Stream #0:0 (wrapped_avframe)
  Stream #0:1 -> #0:1 (aac (native) -> pcm_s16le (native))
Output #0, null, to 'pipe:':
  Metadata:
    COMPATIBLE_BRANDS: isomiso2avc1mp41
    MAJOR_BRAND     : isom
    MINOR_VERSION   : 512
    encoder         : Lavf61.7.100
  Stream #0:0: Video: wrapped_avframe, yuv420p10le(tv, bt709, progressive), 1920x1080 [SAR 1:1 DAR 16:9], q=2-31, 200 kb/s, 23.98 fps, 23.98 tbn
      Metadata:
        encoder         : Lavc61.19.100 wrapped_avframe
  Stream #0:1: Audio: pcm_s16le, 48000 Hz, stereo, s16, 1536 kb/s (default)
      Metadata:
        HANDLER_NAME    : SoundHandler
        VENDOR_ID       : [0][0][0][0]
        _STATISTICS_TAGS: BPS DURATION NUMBER_OF_FRAMES NUMBER_OF_BYTES
        BPS             : 194984
        DURATION        : 00:23:50.656000000
        NUMBER_OF_FRAMES: 67063
        NUMBER_OF_BYTES : 34869444
        _STATISTICS_WRITING_APP: mkvpropedit v66.0.0 ('Josie') 64-bit
        _STATISTICS_WRITING_DATE_UTC: 2025-06-15 16:19:12
        encoder         : Lavc61.19.100 pcm_s16le
frame=  187 fps=0.0 q=-0.0 size=N/A time=00:00:07.79 bitrate=N/A speed=  15x    frame=  405 fps=394 q=-0.0 size=N/A time=00:00:16.89 bitrate=N/A speed=16.4x    frame=  665 fps=429 q=-0.0 size=N/A time=00:00:27.73 bitrate=N/A speed=17.9x    frame=  922 fps=444 q=-0.0 size=N/A time=00:00:38.45 bitrate=N/A speed=18.5x    frame= 1188 fps=457 q=-0.0 size=N/A time=00:00:49.54 bitrate=N/A speed=19.1x    frame= 1425 fps=458 q=-0.0 size=N/A time=00:00:59.43 bitrate=N/A speed=19.1x    frame= 1626 fps=449 q=-0.0 size=N/A time=00:01:07.81 bitrate=N/A speed=18.7x    frame= 1866 fps=452 q=-0.0 size=N/A time=00:01:17.82 bitrate=N/A speed=18.8x    frame= 2126 fps=457 q=-0.0 size=N/A time=00:01:28.67 bitrate=N/A speed=19.1x    frame= 2374 fps=460 q=-0.0 size=N/A time=00:01:39.01 bitrate=N/A speed=19.2x    frame= 2611 fps=459 q=-0.0 size=N/A time=00:01:48.90 bitrate=N/A speed=19.1x    frame= 2864 fps=462 q=-0.0 size=N/A time=00:01:59.45 bitrate=N/A speed=19.3x    frame= 3096 fps=462 q=-0.0 size=N/A time=00:02:09.12 bitrate=N/A speed=19.3x    frame= 3282 fps=454 q=-0.0 size=N/A time=00:02:16.88 bitrate=N/A speed=18.9x    frame= 3463 fps=447 q=-0.0 size=N/A time=00:02:24.43 bitrate=N/A speed=18.7x    frame= 3682 fps=446 q=-0.0 size=N/A time=00:02:33.57 bitrate=N/A speed=18.6x    frame= 3919 fps=446 q=-0.0 size=N/A time=00:02:43.45 bitrate=N/A speed=18.6x    frame= 4095 fps=441 q=-0.0 size=N/A time=00:02:50.79 bitrate=N/A speed=18.4x    frame= 4302 fps=438 q=-0.0 size=N/A time=00:02:59.42 bitrate=N/A speed=18.3x    frame= 4479 fps=434 q=-0.0 size=N/A time=00:03:06.81 bitrate=N/A speed=18.1x    frame= 4648 fps=429 q=-0.0 size=N/A time=00:03:13.86 bitrate=N/A speed=17.9x    frame= 4854 fps=427 q=-0.0 size=N/A time=00:03:22.45 bitrate=N/A speed=17.8x    frame= 5060 fps=426 q=-0.0 size=N/A time=00:03:31.04 bitrate=N/A speed=17.8x    frame= 5275 fps=426 q=-0.0 size=N/A time=00:03:40.01 bitrate=N/A speed=17.8x    frame= 5507 fps=427 q=-0.0 size=N/A time=00:03:49.68 bitrate=N/A speed=17.8x    frame= 5750 fps=429 q=-0.0 size=N/A time=00:03:59.82 bitrate=N/A speed=17.9x    frame= 6011 fps=432 q=-0.0 size=N/A time=00:04:10.70 bitrate=N/A speed=  18x    frame= 6276 fps=434 q=-0.0 size=N/A time=00:04:21.76 bitrate=N/A speed=18.1x    frame= 6539 fps=437 q=-0.0 size=N/A time=00:04:32.73 bitrate=N/A speed=18.2x    frame= 6801 fps=439 q=-0.0 size=N/A time=00:04:43.65 bitrate=N/A speed=18.3x    frame= 7051 fps=441 q=-0.0 size=N/A time=00:04:54.08 bitrate=N/A speed=18.4x    frame= 7302 fps=442 q=-0.0 size=N/A time=00:05:04.59 bitrate=N/A speed=18.4x    frame= 7488 fps=440 q=-0.0 size=N/A time=00:05:12.31 bitrate=N/A speed=18.3x    frame= 7711 fps=440 q=-0.0 size=N/A time=00:05:21.61 bitrate=N/A speed=18.3x    frame= 7945 fps=440 q=-0.0 size=N/A time=00:05:31.37 bitrate=N/A speed=18.4x    frame= 8186 fps=441 q=-0.0 size=N/A time=00:05:41.42 bitrate=N/A speed=18.4x    frame= 8425 fps=442 q=-0.0 size=N/A time=00:05:51.39 bitrate=N/A speed=18.4x    frame= 8674 fps=442 q=-0.0 size=N/A time=00:06:01.77 bitrate=N/A speed=18.4x    frame= 8891 fps=442 q=-0.0 size=N/A time=00:06:10.82 bitrate=N/A speed=18.4x    frame= 9121 fps=442 q=-0.0 size=N/A time=00:06:20.42 bitrate=N/A speed=18.4x    frame= 9350 fps=442 q=-0.0 size=N/A time=00:06:29.97 bitrate=N/A speed=18.4x    frame= 9562 fps=441 q=-0.0 size=N/A time=00:06:38.81 bitrate=N/A speed=18.4x    frame= 9735 fps=439 q=-0.0 size=N/A time=00:06:46.03 bitrate=N/A speed=18.3x    frame= 9979 fps=440 q=-0.0 size=N/A time=00:06:56.20 bitrate=N/A speed=18.3x    frame=10212 fps=440 q=-0.0 size=N/A time=00:07:05.92 bitrate=N/A speed=18.4x    frame=10474 fps=441 q=-0.0 size=N/A time=00:07:16.85 bitrate=N/A speed=18.4x    frame=10741 fps=443 q=-0.0 size=N/A time=00:07:27.98 bitrate=N/A speed=18.5x    frame=10995 fps=444 q=-0.0 size=N/A time=00:07:38.58 bitrate=N/A speed=18.5x    frame=11239 fps=445 q=-0.0 size=N/A time=00:07:48.75 bitrate=N/A speed=18.5x    frame=11495 fps=446 q=-0.0 size=N/A time=00:07:59.43 bitrate=N/A speed=18.6x    frame=11772 fps=447 q=-0.0 size=N/A time=00:08:10.99 bitrate=N/A speed=18.7x    frame=12028 fps=448 q=-0.0 size=N/A time=00:08:21.66 bitrate=N/A speed=18.7x    frame=12276 fps=449 q=-0.0 size=N/A time=00:08:32.01 bitrate=N/A speed=18.7x    frame=12519 fps=449 q=-0.0 size=N/A time=00:08:42.14 bitrate=N/A speed=18.7x    frame=12740 fps=449 q=-0.0 size=N/A time=00:08:51.36 bitrate=N/A speed=18.7x    frame=13000 fps=450 q=-0.0 size=N/A time=00:09:02.20 bitrate=N/A speed=18.8x    frame=13238 fps=450 q=-0.0 size=N/A time=00:09:12.13 bitrate=N/A speed=18.8x    frame=13471 fps=450 q=-0.0 size=N/A time=00:09:21.85 bitrate=N/A speed=18.8x    frame=13706 fps=450 q=-0.0 size=N/A time=00:09:31.65 bitrate=N/A speed=18.8x    frame=13949 fps=451 q=-0.0 size=N/A time=00:09:41.78 bitrate=N/A speed=18.8x    frame=14168 fps=450 q=-0.0 size=N/A time=00:09:50.92 bitrate=N/A speed=18.8x    frame=14421 fps=451 q=-0.0 size=N/A time=00:10:01.47 bitrate=N/A speed=18.8x    frame=14679 fps=452 q=-0.0 size=N/A time=00:10:12.23 bitrate=N/A speed=18.8x    frame=14934 fps=452 q=-0.0 size=N/A time=00:10:22.87 bitrate=N/A speed=18.9x    frame=15201 fps=453 q=-0.0 size=N/A time=00:10:34.00 bitrate=N/A speed=18.9x    frame=15454 fps=454 q=-0.0 size=N/A time=00:10:44.56 bitrate=N/A speed=18.9x    frame=15696 fps=454 q=-0.0 size=N/A time=00:10:54.65 bitrate=N/A speed=18.9x    frame=15922 fps=454 q=-0.0 size=N/A time=00:11:04.08 bitrate=N/A speed=18.9x    frame=16168 fps=454 q=-0.0 size=N/A time=00:11:14.34 bitrate=N/A speed=18.9x    frame=16371 fps=453 q=-0.0 size=N/A time=00:11:22.80 bitrate=N/A speed=18.9x    frame=16598 fps=453 q=-0.0 size=N/A time=00:11:32.27 bitrate=N/A speed=18.9x    frame=16814 fps=453 q=-0.0 size=N/A time=00:11:41.28 bitrate=N/A speed=18.9x    frame=17023 fps=452 q=-0.0 size=N/A time=00:11:50.00 bitrate=N/A speed=18.9x    frame=17282 fps=453 q=-0.0 size=N/A time=00:12:00.80 bitrate=N/A speed=18.9x    frame=17536 fps=453 q=-0.0 size=N/A time=00:12:11.39 bitrate=N/A speed=18.9x    frame=17800 fps=454 q=-0.0 size=N/A time=00:12:22.40 bitrate=N/A speed=18.9x    frame=18024 fps=454 q=-0.0 size=N/A time=00:12:31.75 bitrate=N/A speed=18.9x    frame=18260 fps=454 q=-0.0 size=N/A time=00:12:41.59 bitrate=N/A speed=18.9x    frame=18520 fps=454 q=-0.0 size=N/A time=00:12:52.43 bitrate=N/A speed=  19x    frame=18770 fps=455 q=-0.0 size=N/A time=00:13:02.86 bitrate=N/A speed=  19x    frame=19024 fps=455 q=-0.0 size=N/A time=00:13:13.45 bitrate=N/A speed=  19x    frame=19256 fps=455 q=-0.0 size=N/A time=00:13:23.13 bitrate=N/A speed=  19x    frame=19500 fps=455 q=-0.0 size=N/A time=00:13:33.31 bitrate=N/A speed=  19x    frame=19739 fps=455 q=-0.0 size=N/A time=00:13:43.28 bitrate=N/A speed=  19x    frame=19981 fps=456 q=-0.0 size=N/A time=00:13:53.37 bitrate=N/A speed=  19x    frame=20212 fps=455 q=-0.0 size=N/A time=00:14:03.00 bitrate=N/A speed=  19x    frame=20447 fps=456 q=-0.0 size=N/A time=00:14:12.81 bitrate=N/A speed=  19x    frame=20669 fps=455 q=-0.0 size=N/A time=00:14:22.06 bitrate=N/A speed=  19x    frame=20906 fps=455 q=-0.0 size=N/A time=00:14:31.95 bitrate=N/A speed=  19x    frame=21139 fps=455 q=-0.0 size=N/A time=00:14:41.67 bitrate=N/A speed=  19x    frame=21350 fps=455 q=-0.0 size=N/A time=00:14:50.47 bitrate=N/A speed=  19x    frame=21579 fps=455 q=-0.0 size=N/A time=00:15:00.02 bitrate=N/A speed=  19x    frame=21799 fps=454 q=-0.0 size=N/A time=00:15:09.19 bitrate=N/A speed=  19x    frame=22033 fps=454 q=-0.0 size=N/A time=00:15:18.95 bitrate=N/A speed=18.9x    frame=22216 fps=453 q=-0.0 size=N/A time=00:15:26.59 bitrate=N/A speed=18.9x    frame=22426 fps=453 q=-0.0 size=N/A time=00:15:35.35 bitrate=N/A speed=18.9x    frame=22704 fps=454 q=-0.0 size=N/A time=00:15:46.94 bitrate=N/A speed=18.9x    frame=22957 fps=454 q=-0.0 size=N/A time=00:15:57.49 bitrate=N/A speed=18.9x    frame=23225 fps=455 q=-0.0 size=N/A time=00:16:08.67 bitrate=N/A speed=  19x    frame=23507 fps=456 q=-0.0 size=N/A time=00:16:20.43 bitrate=N/A speed=  19x    frame=23762 fps=456 q=-0.0 size=N/A time=00:16:31.07 bitrate=N/A speed=  19x    frame=24027 fps=457 q=-0.0 size=N/A time=00:16:42.12 bitrate=N/A speed=  19x    frame=24291 fps=457 q=-0.0 size=N/A time=00:16:53.13 bitrate=N/A speed=19.1x    frame=24493 fps=457 q=-0.0 size=N/A time=00:17:01.56 bitrate=N/A speed=  19x    frame=24713 fps=456 q=-0.0 size=N/A time=00:17:10.73 bitrate=N/A speed=  19x    frame=24958 fps=456 q=-0.0 size=N/A time=00:17:20.95 bitrate=N/A speed=  19x    frame=25197 fps=456 q=-0.0 size=N/A time=00:17:30.92 bitrate=N/A speed=  19x    frame=25432 fps=457 q=-0.0 size=N/A time=00:17:40.72 bitrate=N/A speed=  19x    frame=25652 fps=456 q=-0.0 size=N/A time=00:17:49.90 bitrate=N/A speed=  19x    frame=25928 fps=457 q=-0.0 size=N/A time=00:18:01.41 bitrate=N/A speed=19.1x    frame=26155 fps=457 q=-0.0 size=N/A time=00:18:10.88 bitrate=N/A speed=19.1x    frame=26384 fps=457 q=-0.0 size=N/A time=00:18:20.43 bitrate=N/A speed=  19x    frame=26630 fps=457 q=-0.0 size=N/A time=00:18:30.69 bitrate=N/A speed=19.1x    frame=26870 fps=457 q=-0.0 size=N/A time=00:18:40.70 bitrate=N/A speed=19.1x    frame=27149 fps=457 q=-0.0 size=N/A time=00:18:52.33 bitrate=N/A speed=19.1x    frame=27415 fps=458 q=-0.0 size=N/A time=00:19:03.43 bitrate=N/A speed=19.1x    frame=27695 fps=459 q=-0.0 size=N/A time=00:19:15.11 bitrate=N/A speed=19.1x    frame=27926 fps=459 q=-0.0 size=N/A time=00:19:24.74 bitrate=N/A speed=19.1x    frame=28119 fps=458 q=-0.0 size=N/A time=00:19:32.79 bitrate=N/A speed=19.1x    frame=28342 fps=458 q=-0.0 size=N/A time=00:19:42.09 bitrate=N/A speed=19.1x    frame=28578 fps=458 q=-0.0 size=N/A time=00:19:51.94 bitrate=N/A speed=19.1x    frame=28811 fps=458 q=-0.0 size=N/A time=00:20:01.65 bitrate=N/A speed=19.1x    frame=29043 fps=458 q=-0.0 size=N/A time=00:20:11.33 bitrate=N/A speed=19.1x    frame=29308 fps=458 q=-0.0 size=N/A time=00:20:22.38 bitrate=N/A speed=19.1x    frame=29538 fps=458 q=-0.0 size=N/A time=00:20:31.98 bitrate=N/A speed=19.1x    frame=29797 fps=458 q=-0.0 size=N/A time=00:20:42.78 bitrate=N/A speed=19.1x    frame=30044 fps=458 q=-0.0 size=N/A time=00:20:53.08 bitrate=N/A speed=19.1x    frame=30293 fps=459 q=-0.0 size=N/A time=00:21:03.47 bitrate=N/A speed=19.1x    frame=30556 fps=459 q=-0.0 size=N/A time=00:21:14.43 bitrate=N/A speed=19.1x    frame=30793 fps=459 q=-0.0 size=N/A time=00:21:24.32 bitrate=N/A speed=19.1x    frame=31026 fps=459 q=-0.0 size=N/A time=00:21:34.04 bitrate=N/A speed=19.1x    frame=31274 fps=459 q=-0.0 size=N/A time=00:21:44.38 bitrate=N/A speed=19.2x    frame=31512 fps=459 q=-0.0 size=N/A time=00:21:54.31 bitrate=N/A speed=19.2x    frame=31756 fps=459 q=-0.0 size=N/A time=00:22:04.48 bitrate=N/A speed=19.2x    frame=31990 fps=459 q=-0.0 size=N/A time=00:22:14.24 bitrate=N/A speed=19.2x    frame=32190 fps=459 q=-0.0 size=N/A time=00:22:22.59 bitrate=N/A speed=19.1x    frame=32385 fps=458 q=-0.0 size=N/A time=00:22:30.72 bitrate=N/A speed=19.1x    frame=32591 fps=458 q=-0.0 size=N/A time=00:22:39.31 bitrate=N/A speed=19.1x    frame=32813 fps=458 q=-0.0 size=N/A time=00:22:48.57 bitrate=N/A speed=19.1x    frame=33027 fps=457 q=-0.0 size=N/A time=00:22:57.50 bitrate=N/A speed=19.1x    frame=33248 fps=457 q=-0.0 size=N/A time=00:23:06.71 bitrate=N/A speed=19.1x    frame=33465 fps=457 q=-0.0 size=N/A time=00:23:15.76 bitrate=N/A speed=19.1x    frame=33652 fps=456 q=-0.0 size=N/A time=00:23:23.56 bitrate=N/A speed=  19x    frame=33841 fps=456 q=-0.0 size=N/A time=00:23:31.45 bitrate=N/A speed=  19x    frame=34035 fps=455 q=-0.0 size=N/A time=00:23:39.54 bitrate=N/A speed=  19x    [Parsed_ssim_10 @ 000002d38476b280] SSIM Y:0.992897 (21.485619) U:0.993042 (21.575131) V:0.993598 (21.936765) All:0.993038 (21.572669)
[out#0/null @ 000002d38294ca80] video:14697KiB audio:268252KiB subtitle:0KiB other streams:0KiB global headers:0KiB muxing overhead: unknown
frame=34203 fps=455 q=-0.0 Lsize=N/A time=00:23:46.55 bitrate=N/A speed=  19x    
